<svg xmlns="http://www.w3.org/2000/svg" viewBox="0 0 100 100">
  <defs>
    <linearGradient id="dragonGradient" x1="0%" y1="0%" x2="100%" y2="100%">
      <stop offset="0%" style="stop-color:#FFD700;stop-opacity:1" />
      <stop offset="100%" style="stop-color:#FFA500;stop-opacity:1" />
    </linearGradient>
  </defs>
  <circle cx="50" cy="50" r="48" fill="url(#dragonGradient)" stroke="#8B4513" stroke-width="2"/>
  <path d="M50 15 L55 25 L65 25 L57 32 L60 42 L50 36 L40 42 L43 32 L35 25 L45 25 Z" fill="#FF0000" stroke="#8B0000" stroke-width="1"/>
  <ellipse cx="50" cy="55" rx="20" ry="25" fill="#FFD700" stroke="#8B4513" stroke-width="2"/>
  <circle cx="43" cy="50" r="3" fill="#000000"/>
  <circle cx="57" cy="50" r="3" fill="#000000"/>
  <path d="M45 58 Q50 63 55 58" fill="none" stroke="#8B4513" stroke-width="2"/>
  <path d="M30 70 Q50 85 70 70" fill="none" stroke="#8B4513" stroke-width="3"/>
  <path d="M25 65 Q30 75 35 65" fill="none" stroke="#8B4513" stroke-width="2"/>
  <path d="M65 65 Q70 75 75 65" fill="none" stroke="#8B4513" stroke-width="2"/>
</svg>